<svg width="184" height="133" viewBox="0 0 184 133" fill="none" xmlns="http://www.w3.org/2000/svg">
<rect x="41" y="22" width="11" height="11" fill="#3D2619"/>
<rect x="30" y="11" width="11" height="11" fill="#E8E4DE"/>
<rect x="30" y="55" width="11" height="11" fill="#E8E4DE"/>
<rect x="30" y="44" width="11" height="11" fill="#E8E4DE"/>
<rect x="19" y="44" width="11" height="11" fill="#E8E4DE"/>
<rect x="19" y="33" width="11" height="11" fill="#E8E4DE"/>
<rect x="19" y="22" width="11" height="11" fill="#E8E4DE"/>
<rect x="19" y="11" width="11" height="11" fill="#E8E4DE"/>
<rect x="52" y="55" width="11" height="11" fill="#E8E4DE"/>
<rect x="74" y="55" width="11" height="11" fill="#E8E4DE"/>
<rect x="96" y="55" width="11" height="11" fill="#E8E4DE"/>
<rect x="41" y="55" width="11" height="11" fill="#E8E4DE"/>
<rect x="63" y="55" width="11" height="11" fill="#E8E4DE"/>
<rect x="85" y="55" width="11" height="11" fill="#E8E4DE"/>
<rect x="107" y="11" width="11" height="11" fill="#E8E4DE"/>
<rect x="107" y="55" width="11" height="11" fill="#F5F5F5"/>
<rect x="118" y="22" width="11" height="11" fill="#E8E4DE"/>
<rect x="118" y="33" width="11" height="11" fill="#E8E4DE"/>
<rect x="107" y="44" width="11" height="11" fill="#E8E4DE"/>
<rect x="107" y="55" width="11" height="11" fill="#E8E4DE"/>
<rect x="118" y="44" width="11" height="11" fill="#E8E4DE"/>
<rect x="41" y="33" width="11" height="11" fill="#3D2619"/>
<rect x="41" y="44" width="11" height="11" fill="#3D2619"/>
<rect x="85" y="22" width="11" height="11" fill="#3D2619"/>
<rect x="85" width="11" height="11" fill="black"/>
<rect x="85" y="33" width="11" height="11" fill="#3D2619"/>
<rect x="85" y="44" width="11" height="11" fill="#3D2619"/>
<rect x="63" y="22" width="11" height="11" fill="#3D2619"/>
<rect x="63" y="33" width="11" height="11" fill="#3D2619"/>
<rect x="63" y="44" width="11" height="11" fill="#3D2619"/>
<rect x="52" y="22" width="11" height="11" fill="#3D2619"/>
<rect x="52" y="33" width="11" height="11" fill="#3D2619"/>
<rect x="52" y="44" width="11" height="11" fill="#3D2619"/>
<rect x="96" y="22" width="11" height="11" fill="#3D2619"/>
<rect x="96" width="11" height="11" fill="black"/>
<rect x="107" width="11" height="11" fill="black"/>
<rect x="118" y="11" width="11" height="11" fill="black"/>
<rect x="129" y="22" width="11" height="11" fill="black"/>
<rect x="129" y="88" width="11" height="11" fill="black"/>
<rect x="129" y="99" width="11" height="11" fill="black"/>
<rect x="118" y="110" width="11" height="11" fill="black"/>
<rect x="41" y="110" width="11" height="11" fill="black"/>
<rect x="107" y="110" width="11" height="11" fill="black"/>
<rect x="30" y="110" width="11" height="11" fill="black"/>
<rect x="96" y="121" width="11" height="11" fill="black"/>
<rect x="96" y="121" width="11" height="11" fill="black"/>
<rect x="140" y="22" width="11" height="11" fill="black"/>
<rect x="140" y="88" width="11" height="11" fill="black"/>
<rect x="129" y="44" width="11" height="11" fill="black"/>
<rect x="129" y="66" width="11" height="11" fill="black"/>
<rect x="129" y="55" width="11" height="11" fill="black"/>
<rect x="140" y="44" width="11" height="11" fill="black"/>
<rect x="140" y="66" width="11" height="11" fill="black"/>
<rect x="151" y="44" width="11" height="11" fill="black"/>
<rect x="151" y="66" width="11" height="11" fill="black"/>
<rect x="151" y="55" width="11" height="11" fill="black"/>
<rect x="140" y="99" width="11" height="11" fill="black"/>
<rect x="151" y="22" width="11" height="11" fill="black"/>
<rect x="151" y="88" width="11" height="11" fill="black"/>
<rect x="162" y="33" width="11" height="11" fill="black"/>
<rect x="162" y="77" width="11" height="11" fill="black"/>
<rect x="173" y="44" width="11" height="11" fill="black"/>
<rect x="173" y="55" width="11" height="11" fill="black"/>
<rect x="173" y="66" width="11" height="11" fill="black"/>
<rect x="96" y="33" width="11" height="11" fill="#3D2619"/>
<rect x="96" y="44" width="11" height="11" fill="#3D2619"/>
<rect x="107" y="33" width="11" height="11" fill="#3D2619"/>
<rect x="30" y="33" width="11" height="11" fill="#3D2619"/>
<rect x="30" width="11" height="11" fill="black"/>
<rect x="19" y="11" width="11" height="11" fill="black"/>
<rect x="8" y="22" width="11" height="11" fill="black"/>
<rect x="8" y="55" width="11" height="11" fill="black"/>
<rect x="8" y="33" width="11" height="11" fill="black"/>
<rect x="8" y="66" width="11" height="11" fill="black"/>
<rect x="8" y="77" width="11" height="11" fill="black"/>
<rect x="8" y="88" width="11" height="11" fill="black"/>
<rect x="19" y="99" width="11" height="11" fill="black"/>
<rect x="8" y="44" width="11" height="11" fill="black"/>
<rect x="52" width="11" height="11" fill="black"/>
<rect x="63" y="121" width="11" height="11" fill="black"/>
<rect x="41" width="11" height="11" fill="black"/>
<rect x="52" y="121" width="11" height="11" fill="black"/>
<rect x="63" width="11" height="11" fill="black"/>
<rect x="74" y="121" width="11" height="11" fill="black"/>
<rect x="74" y="22" width="11" height="11" fill="#3D2619"/>
<rect x="74" width="11" height="11" fill="black"/>
<rect x="85" y="121" width="11" height="11" fill="black"/>
<rect x="74" y="33" width="11" height="11" fill="#3D2619"/>
<rect x="74" y="44" width="11" height="11" fill="#3D2619"/>
</svg>
