<svg width="286" height="176" viewBox="0 0 286 176" fill="none" xmlns="http://www.w3.org/2000/svg">
<rect x="165" width="11" height="11" fill="#3D2619"/>
<rect x="165" y="11" width="11" height="11" fill="#3D2619"/>
<rect x="176" y="11" width="11" height="11" fill="#3D2619"/>
<rect x="176" y="55" width="11" height="11" fill="#3D2619"/>
<rect x="198" y="55" width="11" height="11" fill="#3D2619"/>
<rect x="220" y="55" width="11" height="11" fill="#3D2619"/>
<rect x="242" y="55" width="11" height="11" fill="#3D2619"/>
<rect x="264" y="55" width="11" height="11" fill="#3D2619"/>
<rect x="165" y="55" width="11" height="11" fill="#3D2619"/>
<rect x="154" y="55" width="11" height="11" fill="#3D2619"/>
<rect x="143" y="55" width="11" height="11" fill="#3D2619"/>
<rect x="132" y="55" width="11" height="11" fill="#3D2619"/>
<rect x="121" y="55" width="11" height="11" fill="#3D2619"/>
<rect x="110" y="55" width="11" height="11" fill="#3D2619"/>
<rect x="99" y="55" width="11" height="11" fill="#3D2619"/>
<rect x="187" y="55" width="11" height="11" fill="#3D2619"/>
<rect x="209" y="55" width="11" height="11" fill="#3D2619"/>
<rect x="231" y="55" width="11" height="11" fill="#3D2619"/>
<rect x="264" y="33" width="11" height="11" fill="#3D2619"/>
<rect x="253" y="55" width="11" height="11" fill="#3D2619"/>
<rect x="176" y="33" width="11" height="11" fill="#3D2619"/>
<rect x="220" y="33" width="11" height="11" fill="#3D2619"/>
<rect x="231" y="22" width="11" height="11" fill="#3D2619"/>
<rect x="242" y="11" width="11" height="11" fill="#3D2619"/>
<rect x="176" y="77" width="11" height="11" fill="#3D2619"/>
<rect x="198" y="77" width="11" height="11" fill="#3D2619"/>
<rect x="220" y="77" width="11" height="11" fill="#3D2619"/>
<rect x="242" y="77" width="11" height="11" fill="#3D2619"/>
<rect x="264" y="77" width="11" height="11" fill="#3D2619"/>
<rect x="165" y="77" width="11" height="11" fill="#3D2619"/>
<rect x="154" y="77" width="11" height="11" fill="#3D2619"/>
<rect x="143" y="77" width="11" height="11" fill="#3D2619"/>
<rect x="132" y="77" width="11" height="11" fill="#3D2619"/>
<rect x="121" y="77" width="11" height="11" fill="#3D2619"/>
<rect x="110" y="77" width="11" height="11" fill="#3D2619"/>
<rect x="99" y="77" width="11" height="11" fill="#3D2619"/>
<rect x="88" y="77" width="11" height="11" fill="#3D2619"/>
<rect x="77" y="77" width="11" height="11" fill="#3D2619"/>
<rect x="187" y="77" width="11" height="11" fill="#3D2619"/>
<rect x="209" y="77" width="11" height="11" fill="#3D2619"/>
<rect x="231" y="77" width="11" height="11" fill="#3D2619"/>
<rect x="253" y="77" width="11" height="11" fill="#3D2619"/>
<rect x="176" y="99" width="11" height="11" fill="#3D2619"/>
<rect x="165" y="99" width="11" height="11" fill="#3D2619"/>
<rect x="198" y="99" width="11" height="11" fill="#3D2619"/>
<rect x="220" y="99" width="11" height="11" fill="#3D2619"/>
<rect x="264" y="99" width="11" height="11" fill="#3D2619"/>
<rect x="176" y="110" width="11" height="11" fill="#3D2619"/>
<rect x="154" y="99" width="11" height="11" fill="#3D2619"/>
<rect x="143" y="99" width="11" height="11" fill="#3D2619"/>
<rect x="132" y="99" width="11" height="11" fill="#3D2619"/>
<rect x="121" y="99" width="11" height="11" fill="#3D2619"/>
<rect x="110" y="99" width="11" height="11" fill="#3D2619"/>
<rect x="99" y="99" width="11" height="11" fill="#3D2619"/>
<rect x="88" y="99" width="11" height="11" fill="#3D2619"/>
<rect x="77" y="99" width="11" height="11" fill="#3D2619"/>
<rect x="187" y="99" width="11" height="11" fill="#3D2619"/>
<rect x="209" y="99" width="11" height="11" fill="#3D2619"/>
<rect x="231" y="99" width="11" height="11" fill="#3D2619"/>
<rect x="253" y="99" width="11" height="11" fill="#3D2619"/>
<rect x="176" y="22" width="11" height="11" fill="#3D2619"/>
<rect x="176" y="66" width="11" height="11" fill="#3D2619"/>
<rect x="198" y="66" width="11" height="11" fill="#3D2619"/>
<rect x="220" y="66" width="11" height="11" fill="#3D2619"/>
<rect x="242" y="66" width="11" height="11" fill="#3D2619"/>
<rect x="264" y="66" width="11" height="11" fill="#3D2619"/>
<rect x="165" y="66" width="11" height="11" fill="#3D2619"/>
<rect x="154" y="66" width="11" height="11" fill="#3D2619"/>
<rect x="143" y="66" width="11" height="11" fill="#3D2619"/>
<rect x="132" y="66" width="11" height="11" fill="#3D2619"/>
<rect x="121" y="66" width="11" height="11" fill="#3D2619"/>
<rect x="110" y="66" width="11" height="11" fill="#3D2619"/>
<rect x="99" y="66" width="11" height="11" fill="#3D2619"/>
<rect x="88" y="66" width="11" height="11" fill="#3D2619"/>
<rect x="187" y="66" width="11" height="11" fill="#3D2619"/>
<rect x="209" y="66" width="11" height="11" fill="#3D2619"/>
<rect x="231" y="66" width="11" height="11" fill="#3D2619"/>
<rect x="264" y="44" width="11" height="11" fill="#3D2619"/>
<rect x="253" y="66" width="11" height="11" fill="#3D2619"/>
<rect x="176" y="44" width="11" height="11" fill="#3D2619"/>
<rect x="198" y="44" width="11" height="11" fill="#3D2619"/>
<rect x="220" y="44" width="11" height="11" fill="#3D2619"/>
<rect x="242" y="44" width="11" height="11" fill="#3D2619"/>
<rect x="165" y="44" width="11" height="11" fill="#3D2619"/>
<rect x="187" y="44" width="11" height="11" fill="#3D2619"/>
<rect x="187" y="33" width="11" height="11" fill="#3D2619"/>
<rect x="231" y="33" width="11" height="11" fill="#3D2619"/>
<rect x="264" y="11" width="11" height="11" fill="#3D2619"/>
<rect x="242" y="22" width="11" height="11" fill="#3D2619"/>
<rect x="253" y="11" width="11" height="11" fill="#3D2619"/>
<rect x="253" width="11" height="11" fill="#3D2619"/>
<rect x="209" y="44" width="11" height="11" fill="#3D2619"/>
<rect x="231" y="44" width="11" height="11" fill="#3D2619"/>
<rect x="264" y="22" width="11" height="11" fill="#3D2619"/>
<rect x="176" y="88" width="11" height="11" fill="#3D2619"/>
<rect x="198" y="88" width="11" height="11" fill="#3D2619"/>
<rect x="220" y="88" width="11" height="11" fill="#3D2619"/>
<rect x="242" y="88" width="11" height="11" fill="#3D2619"/>
<rect x="242" y="99" width="11" height="11" fill="#3D2619"/>
<rect x="264" y="88" width="11" height="11" fill="#3D2619"/>
<rect x="165" y="88" width="11" height="11" fill="#3D2619"/>
<rect x="154" y="88" width="11" height="11" fill="#3D2619"/>
<rect x="143" y="88" width="11" height="11" fill="#3D2619"/>
<rect x="132" y="88" width="11" height="11" fill="#3D2619"/>
<rect x="121" y="88" width="11" height="11" fill="#3D2619"/>
<rect x="110" y="88" width="11" height="11" fill="#3D2619"/>
<rect x="99" y="88" width="11" height="11" fill="#3D2619"/>
<rect x="88" y="88" width="11" height="11" fill="#3D2619"/>
<rect x="77" y="88" width="11" height="11" fill="#3D2619"/>
<rect x="187" y="88" width="11" height="11" fill="#3D2619"/>
<rect x="209" y="88" width="11" height="11" fill="#3D2619"/>
<rect x="231" y="88" width="11" height="11" fill="#3D2619"/>
<rect x="253" y="88" width="11" height="11" fill="#3D2619"/>
<rect x="198" y="110" width="11" height="11" fill="#3D2619"/>
<rect x="220" y="110" width="11" height="11" fill="#3D2619"/>
<rect x="231" y="110" width="11" height="11" fill="#3D2619"/>
<rect x="264" y="110" width="11" height="11" fill="#3D2619"/>
<rect x="154" y="110" width="11" height="11" fill="#3D2619"/>
<rect x="143" y="110" width="11" height="11" fill="#3D2619"/>
<rect x="143" y="121" width="11" height="11" fill="#3D2619"/>
<rect x="154" y="121" width="11" height="11" fill="#3D2619"/>
<rect x="143" y="132" width="11" height="11" fill="#3D2619"/>
<rect x="143" y="143" width="11" height="11" fill="#3D2619"/>
<rect x="165" y="154" width="11" height="11" fill="#3D2619"/>
<rect x="187" y="165" width="11" height="11" fill="#3D2619"/>
<rect x="220" y="132" width="11" height="11" fill="#3D2619"/>
<rect x="264" y="121" width="11" height="11" fill="#3D2619"/>
<rect x="275" y="99" width="11" height="11" fill="#3D2619"/>
<rect x="220" y="143" width="11" height="11" fill="#3D2619"/>
<rect x="253" y="143" width="11" height="11" fill="#3D2619"/>
<rect x="253" y="132" width="11" height="11" fill="#3D2619"/>
<rect x="209" y="121" width="11" height="11" fill="#3D2619"/>
<rect x="220" y="121" width="11" height="11" fill="#3D2619"/>
<rect x="253" y="121" width="11" height="11" fill="#3D2619"/>
<rect x="242" y="121" width="11" height="11" fill="#3D2619"/>
<rect x="253" y="154" width="11" height="11" fill="#3D2619"/>
<rect x="264" y="132" width="11" height="11" fill="#3D2619"/>
<rect x="275" y="110" width="11" height="11" fill="#3D2619"/>
<rect x="242" y="154" width="11" height="11" fill="#3D2619"/>
<rect x="132" y="110" width="11" height="11" fill="#3D2619"/>
<rect x="132" y="121" width="11" height="11" fill="#3D2619"/>
<rect x="132" y="132" width="11" height="11" fill="#3D2619"/>
<rect x="132" y="143" width="11" height="11" fill="#3D2619"/>
<rect x="154" y="154" width="11" height="11" fill="#3D2619"/>
<rect x="176" y="165" width="11" height="11" fill="#3D2619"/>
<rect x="209" y="132" width="11" height="11" fill="#3D2619"/>
<rect x="209" y="143" width="11" height="11" fill="#3D2619"/>
<rect x="242" y="143" width="11" height="11" fill="#3D2619"/>
<rect x="198" y="121" width="11" height="11" fill="#3D2619"/>
<rect x="231" y="154" width="11" height="11" fill="#3D2619"/>
<rect x="253" y="165" width="11" height="11" fill="#3D2619"/>
<rect x="121" y="110" width="11" height="11" fill="#3D2619"/>
<rect x="121" y="121" width="11" height="11" fill="#3D2619"/>
<rect x="121" y="132" width="11" height="11" fill="#3D2619"/>
<rect x="121" y="143" width="11" height="11" fill="#3D2619"/>
<rect x="143" y="154" width="11" height="11" fill="#3D2619"/>
<rect x="165" y="165" width="11" height="11" fill="#3D2619"/>
<rect x="198" y="132" width="11" height="11" fill="#3D2619"/>
<rect x="198" y="143" width="11" height="11" fill="#3D2619"/>
<rect x="231" y="143" width="11" height="11" fill="#3D2619"/>
<rect x="231" y="132" width="11" height="11" fill="#3D2619"/>
<rect x="187" y="121" width="11" height="11" fill="#3D2619"/>
<rect x="220" y="154" width="11" height="11" fill="#3D2619"/>
<rect x="264" y="143" width="11" height="11" fill="#3D2619"/>
<rect x="275" y="121" width="11" height="11" fill="#3D2619"/>
<rect x="242" y="165" width="11" height="11" fill="#3D2619"/>
<rect x="110" y="110" width="11" height="11" fill="#3D2619"/>
<rect x="110" y="121" width="11" height="11" fill="#3D2619"/>
<rect x="110" y="132" width="11" height="11" fill="#3D2619"/>
<rect x="110" y="143" width="11" height="11" fill="#3D2619"/>
<rect x="132" y="154" width="11" height="11" fill="#3D2619"/>
<rect x="154" y="165" width="11" height="11" fill="#3D2619"/>
<rect x="187" y="132" width="11" height="11" fill="#3D2619"/>
<rect x="187" y="143" width="11" height="11" fill="#3D2619"/>
<rect x="209" y="154" width="11" height="11" fill="#3D2619"/>
<rect x="231" y="165" width="11" height="11" fill="#3D2619"/>
<rect x="99" y="110" width="11" height="11" fill="#3D2619"/>
<rect x="99" y="121" width="11" height="11" fill="#3D2619"/>
<rect x="99" y="132" width="11" height="11" fill="#3D2619"/>
<rect x="99" y="143" width="11" height="11" fill="#3D2619"/>
<rect x="121" y="154" width="11" height="11" fill="#3D2619"/>
<rect x="143" y="165" width="11" height="11" fill="#3D2619"/>
<rect x="176" y="132" width="11" height="11" fill="#3D2619"/>
<rect x="176" y="143" width="11" height="11" fill="#3D2619"/>
<rect x="198" y="154" width="11" height="11" fill="#3D2619"/>
<rect x="220" y="165" width="11" height="11" fill="#3D2619"/>
<rect x="264" y="154" width="11" height="11" fill="#3D2619"/>
<rect x="275" y="132" width="11" height="11" fill="#3D2619"/>
<rect x="275" y="143" width="11" height="11" fill="#3D2619"/>
<rect x="88" y="110" width="11" height="11" fill="#3D2619"/>
<rect x="88" y="121" width="11" height="11" fill="#3D2619"/>
<rect x="88" y="132" width="11" height="11" fill="#3D2619"/>
<rect x="88" y="143" width="11" height="11" fill="#3D2619"/>
<rect x="110" y="154" width="11" height="11" fill="#3D2619"/>
<rect x="132" y="165" width="11" height="11" fill="#3D2619"/>
<rect x="165" y="121" width="11" height="11" fill="#3D2619"/>
<rect x="165" y="143" width="11" height="11" fill="#3D2619"/>
<rect x="187" y="154" width="11" height="11" fill="#3D2619"/>
<rect x="209" y="165" width="11" height="11" fill="#3D2619"/>
<rect x="77" y="110" width="11" height="11" fill="#3D2619"/>
<rect x="77" y="121" width="11" height="11" fill="#3D2619"/>
<rect x="66" y="121" width="11" height="11" fill="#3D2619"/>
<rect x="55" y="110" width="11" height="11" fill="#3D2619"/>
<rect x="44" y="110" width="11" height="11" fill="#3D2619"/>
<rect x="33" y="110" width="11" height="11" fill="#3D2619"/>
<rect x="22" y="110" width="11" height="11" fill="#3D2619"/>
<rect x="11" y="110" width="11" height="11" fill="#3D2619"/>
<rect y="121" width="11" height="11" fill="#3D2619"/>
<rect x="77" y="132" width="11" height="11" fill="#3D2619"/>
<rect x="66" y="132" width="11" height="11" fill="#3D2619"/>
<rect x="55" y="121" width="11" height="11" fill="#3D2619"/>
<rect x="44" y="121" width="11" height="11" fill="#3D2619"/>
<rect x="33" y="121" width="11" height="11" fill="#3D2619"/>
<rect x="22" y="121" width="11" height="11" fill="#3D2619"/>
<rect x="11" y="121" width="11" height="11" fill="#3D2619"/>
<rect y="132" width="11" height="11" fill="#3D2619"/>
<rect x="77" y="143" width="11" height="11" fill="#3D2619"/>
<rect x="66" y="143" width="11" height="11" fill="#3D2619"/>
<rect x="55" y="132" width="11" height="11" fill="#3D2619"/>
<rect x="44" y="132" width="11" height="11" fill="#3D2619"/>
<rect x="33" y="132" width="11" height="11" fill="#3D2619"/>
<rect x="22" y="132" width="11" height="11" fill="#3D2619"/>
<rect x="11" y="132" width="11" height="11" fill="#3D2619"/>
<rect y="143" width="11" height="11" fill="#3D2619"/>
<rect x="11" y="143" width="11" height="11" fill="#3D2619"/>
<rect x="22" y="143" width="11" height="11" fill="#3D2619"/>
<rect x="99" y="154" width="11" height="11" fill="#3D2619"/>
<rect x="121" y="165" width="11" height="11" fill="#3D2619"/>
<rect x="154" y="132" width="11" height="11" fill="#3D2619"/>
<rect x="154" y="143" width="11" height="11" fill="#3D2619"/>
<rect x="176" y="154" width="11" height="11" fill="#3D2619"/>
<rect x="198" y="165" width="11" height="11" fill="#3D2619"/>
<rect x="187" y="110" width="11" height="11" fill="#3D2619"/>
<rect x="209" y="110" width="11" height="11" fill="#3D2619"/>
<rect x="253" y="110" width="11" height="11" fill="#3D2619"/>
<rect x="154" y="11" width="11" height="11" fill="#3D2619"/>
<rect x="154" y="22" width="11" height="11" fill="#3D2619"/>
<rect x="143" y="22" width="11" height="11" fill="#3D2619"/>
<rect x="132" y="33" width="11" height="11" fill="#3D2619"/>
<rect x="143" y="33" width="11" height="11" fill="#3D2619"/>
<rect x="132" y="44" width="11" height="11" fill="#3D2619"/>
<rect x="121" y="44" width="11" height="11" fill="#3D2619"/>
<rect x="55" y="44" width="11" height="11" fill="#3D2619"/>
<rect x="55" y="33" width="11" height="11" fill="#3D2619"/>
<rect x="66" y="22" width="11" height="11" fill="#3D2619"/>
<rect x="77" y="11" width="11" height="11" fill="#3D2619"/>
<rect x="77" width="11" height="11" fill="#3D2619"/>
<rect x="66" width="11" height="11" fill="#3D2619"/>
<rect x="55" width="11" height="11" fill="#3D2619"/>
<rect x="66" y="44" width="11" height="11" fill="#3D2619"/>
<rect x="77" y="44" width="11" height="11" fill="#3D2619"/>
<rect x="11" y="66" width="11" height="11" fill="#3D2619"/>
<rect x="22" y="44" width="11" height="11" fill="#3D2619"/>
<rect x="33" y="33" width="11" height="11" fill="#3D2619"/>
<rect x="33" y="22" width="11" height="11" fill="#3D2619"/>
<rect x="22" y="22" width="11" height="11" fill="#3D2619"/>
<rect x="11" y="55" width="11" height="11" fill="#3D2619"/>
<rect x="22" y="66" width="11" height="11" fill="#3D2619"/>
<rect x="33" y="66" width="11" height="11" fill="#3D2619"/>
<rect x="11" y="22" width="11" height="11" fill="#3D2619"/>
</svg>
